<svg xmlns="http://www.w3.org/2000/svg" width="48.115" height="48.115" viewBox="0 0 48.115 48.115">
  <g id="Grupo_1019388" data-name="Grupo 1019388" transform="translate(-924.334 -261.027)">
    <path id="Trazado_730021" data-name="Trazado 730021" d="M349.448,741.486a24.058,24.058,0,1,0,24.058,24.057,24.058,24.058,0,0,0-24.058-24.057" transform="translate(598.943 -480.459)" fill="#fe7062"/>
    <path id="Trazado_730022" data-name="Trazado 730022" d="M376.39,880.27a7.8,7.8,0,1,0,7.8,7.8,7.806,7.806,0,0,0-7.8-7.8m0,13.186a5.389,5.389,0,1,1,5.389-5.389,5.4,5.4,0,0,1-5.389,5.389" transform="translate(561.628 -600.333)" fill="#fff"/>
    <path id="Trazado_730023" data-name="Trazado 730023" d="M510.474,882.881a7.8,7.8,0,1,0,7.8,7.8,7.806,7.806,0,0,0-7.8-7.8m0,13.186a5.389,5.389,0,1,1,5.389-5.389,5.4,5.4,0,0,1-5.389,5.389" transform="translate(445.813 -602.589)" fill="#fff"/>
    <path id="Trazado_730024" data-name="Trazado 730024" d="M428.06,862.751a1.177,1.177,0,0,0-1.047-.483,1.2,1.2,0,0,0-.974.618l-4.8,8.663a1.2,1.2,0,0,0,1.039,1.787l11.33.133h.014a1.2,1.2,0,0,0,.967-1.922Zm-3.735,8.2,2.916-5.265,3.969,5.345Z" transform="translate(516.283 -584.78)" fill="#fff"/>
    <path id="Trazado_730025" data-name="Trazado 730025" d="M449.12,820.885l-4.931-1.6a1.2,1.2,0,0,0-.743,2.29l4.931,1.6a1.2,1.2,0,1,0,.743-2.29" transform="translate(497.693 -547.607)" fill="#fff"/>
    <path id="Trazado_730026" data-name="Trazado 730026" d="M554.019,819.24a1.216,1.216,0,0,0-1.329,1.065l-1.617,14.662a1.2,1.2,0,0,0,1.065,1.329,1.242,1.242,0,0,0,.133.007,1.2,1.2,0,0,0,1.2-1.072l1.617-14.662a1.2,1.2,0,0,0-1.065-1.329" transform="translate(404.017 -547.613)" fill="#fff"/>
    <path id="Trazado_730027" data-name="Trazado 730027" d="M547.857,803.9l-7.819-5.331a1.2,1.2,0,0,0-1.357,1.989l7.819,5.331a1.2,1.2,0,1,0,1.357-1.99" transform="translate(415.168 -529.582)" fill="#fff"/>
    <rect id="Rectángulo_356246" data-name="Rectángulo 356246" width="6.38" height="2.408" transform="translate(949.907 286.281)" fill="#fff"/>
    <path id="Trazado_730028" data-name="Trazado 730028" d="M458.489,828.035a1.2,1.2,0,0,0-1.2,1.2v4.931a1.2,1.2,0,1,0,2.408,0v-4.931a1.2,1.2,0,0,0-1.2-1.2" transform="translate(485.021 -555.215)" fill="#fff"/>
  </g>
</svg>
