<svg xmlns="http://www.w3.org/2000/svg" xmlns:xlink="http://www.w3.org/1999/xlink" width="420" height="414" viewBox="0 0 420 414">
  <defs>
    <clipPath id="clip-path">
      <rect id="Rectángulo_356310" data-name="Rectángulo 356310" width="398.112" height="331.233" fill="none"/>
    </clipPath>
    <clipPath id="clip-path-3">
      <rect id="Rectángulo_356266" data-name="Rectángulo 356266" width="307.86" height="153.93" fill="none"/>
    </clipPath>
    <clipPath id="clip-path-4">
      <rect id="Rectángulo_356288" data-name="Rectángulo 356288" width="38.135" height="4.33" fill="none"/>
    </clipPath>
    <clipPath id="clip-path-5">
      <rect id="Rectángulo_356289" data-name="Rectángulo 356289" width="26.703" height="4.33" fill="none"/>
    </clipPath>
    <clipPath id="clip-path-6">
      <rect id="Rectángulo_356290" data-name="Rectángulo 356290" width="10.272" height="4.33" fill="none"/>
    </clipPath>
    <clipPath id="clip-path-11">
      <rect id="Rectángulo_356295" data-name="Rectángulo 356295" width="23.216" height="4.33" fill="none"/>
    </clipPath>
    <clipPath id="clip-path-12">
      <rect id="Rectángulo_356296" data-name="Rectángulo 356296" width="11.783" height="4.33" fill="none"/>
    </clipPath>
    <clipPath id="clip-path-14">
      <rect id="Rectángulo_356298" data-name="Rectángulo 356298" width="15.567" height="4.33" fill="none"/>
    </clipPath>
    <clipPath id="clip-path-15">
      <rect id="Rectángulo_356300" data-name="Rectángulo 356300" width="116.596" height="87.498" fill="none"/>
    </clipPath>
    <clipPath id="clip-path-16">
      <rect id="Rectángulo_356301" data-name="Rectángulo 356301" width="9.037" height="7.833" fill="none"/>
    </clipPath>
  </defs>
  <g id="Grupo_1019443" data-name="Grupo 1019443" transform="translate(-288 -9036)">
    <rect id="Rectángulo_356101" data-name="Rectángulo 356101" width="420" height="414" transform="translate(288 9036)" fill="#91b3fa" opacity="0.2"/>
    <g id="Grupo_1019442" data-name="Grupo 1019442" transform="translate(2 -22.211)">
      <g id="Grupo_1019441" data-name="Grupo 1019441" transform="translate(297 9099.211)">
        <g id="Grupo_1019440" data-name="Grupo 1019440" clip-path="url(#clip-path)">
          <g id="Grupo_1019439" data-name="Grupo 1019439">
            <g id="Grupo_1019438" data-name="Grupo 1019438" clip-path="url(#clip-path)">
              <rect id="Rectángulo_356252" data-name="Rectángulo 356252" width="85.666" height="60.643" transform="translate(301.517 1.299)" fill="none" stroke="#a3b7f8" stroke-linecap="round" stroke-linejoin="round" stroke-width="3" stroke-dasharray="24.998 24.998"/>
              <path id="Trazado_730044" data-name="Trazado 730044" d="M369.736,7.959A1.554,1.554,0,1,1,368.182,6.4a1.554,1.554,0,0,1,1.555,1.555" transform="translate(-49.093 -0.858)" fill="#ccdaff"/>
              <path id="Trazado_730045" data-name="Trazado 730045" d="M363.761,7.959A1.554,1.554,0,1,1,362.207,6.4a1.554,1.554,0,0,1,1.555,1.555" transform="translate(-48.293 -0.858)" fill="#ccdaff"/>
              <path id="Trazado_730046" data-name="Trazado 730046" d="M357.786,7.959A1.554,1.554,0,1,1,356.232,6.4a1.554,1.554,0,0,1,1.555,1.555" transform="translate(-47.493 -0.858)" fill="#ccdaff"/>
              <rect id="Rectángulo_356253" data-name="Rectángulo 356253" width="52.75" height="4.037" transform="translate(329.549 5.083)" fill="#ccdaff"/>
              <path id="Trazado_730047" data-name="Trazado 730047" d="M366.52,19.486a11.758,11.758,0,0,0-1.963.62q-.409.17-.812.375a11.743,11.743,0,0,0-1.739,1.08,11.621,11.621,0,0,0-2.975,3.276,11.751,11.751,0,0,0-.446,11.419q.2.388.417.755a11.737,11.737,0,1,0,7.518-17.525m5.344,17.008a6.22,6.22,0,0,1-8.163-2.377c-.068-.116-.133-.236-.195-.358a6.218,6.218,0,1,1,8.358,2.734" transform="translate(-47.846 -2.572)" fill="#ac82bb"/>
              <path id="Trazado_730048" data-name="Trazado 730048" d="M358.584,36.256a11.736,11.736,0,1,0,5.161-15.774,11.737,11.737,0,0,0-5.161,15.774m4.922-2.5a6.218,6.218,0,1,1,8.358,2.734,6.218,6.218,0,0,1-8.358-2.734" transform="translate(-47.846 -2.572)" fill="#ccdaff"/>
              <path id="Trazado_730049" data-name="Trazado 730049" d="M363.752,28.566a6.214,6.214,0,0,0-.246,6.064c.061.122.127.242.195.358L359,37.882c-.148-.245-.287-.5-.418-.755a11.719,11.719,0,0,1-.18-10.243,11.424,11.424,0,0,1,.627-1.175Z" transform="translate(-47.846 -3.442)" fill="#f9caff"/>
              <path id="Trazado_730050" data-name="Trazado 730050" d="M366.785,19.529a11.732,11.732,0,0,0-1.963.62q-.411.17-.812.375a11.865,11.865,0,0,0-1.74,1.079A11.646,11.646,0,0,0,359.3,24.88l4.721,2.859a6.261,6.261,0,0,1,3.959-2.821Z" transform="translate(-48.111 -2.615)" fill="#aab1ff"/>
              <line id="Línea_298" data-name="Línea 298" x2="16.65" transform="translate(312.898 45.406)" fill="none" stroke="#c2c2c2" stroke-linecap="round" stroke-linejoin="round" stroke-width="5"/>
              <line id="Línea_299" data-name="Línea 299" x2="1.279" transform="translate(309.541 45.406)" fill="none" stroke="#c2c2c2" stroke-linecap="round" stroke-linejoin="round" stroke-width="5"/>
              <line id="Línea_300" data-name="Línea 300" x2="1.279" transform="translate(309.541 47.922)" fill="none" stroke="#c2c2c2" stroke-linecap="round" stroke-linejoin="round" stroke-width="5"/>
              <line id="Línea_301" data-name="Línea 301" x2="1.279" transform="translate(312.863 50.438)" fill="none" stroke="#c2c2c2" stroke-linecap="round" stroke-linejoin="round" stroke-width="5"/>
              <line id="Línea_302" data-name="Línea 302" x2="1.279" transform="translate(312.863 52.954)" fill="none" stroke="#c2c2c2" stroke-linecap="round" stroke-linejoin="round" stroke-width="5"/>
              <line id="Línea_303" data-name="Línea 303" x2="1.279" transform="translate(312.863 55.471)" fill="none" stroke="#c2c2c2" stroke-linecap="round" stroke-linejoin="round" stroke-width="5"/>
              <line id="Línea_304" data-name="Línea 304" x2="4.126" transform="translate(325.422 47.922)" fill="none" stroke="#faa0a5" stroke-linecap="round" stroke-linejoin="round" stroke-width="5"/>
              <line id="Línea_305" data-name="Línea 305" x2="10.406" transform="translate(312.898 47.922)" fill="none" stroke="#c2c2c2" stroke-linecap="round" stroke-linejoin="round" stroke-width="5"/>
              <line id="Línea_306" data-name="Línea 306" x2="16.65" transform="translate(316.22 50.438)" fill="none" stroke="#faa0a5" stroke-linecap="round" stroke-linejoin="round" stroke-width="5"/>
              <line id="Línea_307" data-name="Línea 307" x2="16.65" transform="translate(316.22 52.954)" fill="none" stroke="#c2c2c2" stroke-linecap="round" stroke-linejoin="round" stroke-width="5"/>
              <line id="Línea_308" data-name="Línea 308" x2="7.229" transform="translate(316.22 55.471)" fill="none" stroke="#c2c2c2" stroke-linecap="round" stroke-linejoin="round" stroke-width="5"/>
              <rect id="Rectángulo_356254" data-name="Rectángulo 356254" width="4.421" height="2.817" transform="translate(342.028 21.448)" fill="#ccdaff"/>
              <rect id="Rectángulo_356255" data-name="Rectángulo 356255" width="21.773" height="2.817" transform="translate(350.542 21.448)" fill="#ccdaff"/>
              <rect id="Rectángulo_356256" data-name="Rectángulo 356256" width="4.421" height="2.817" transform="translate(342.028 27.027)" fill="#ccdaff"/>
              <rect id="Rectángulo_356257" data-name="Rectángulo 356257" width="16.452" height="2.817" transform="translate(350.542 27.027)" fill="#ccdaff"/>
              <rect id="Rectángulo_356258" data-name="Rectángulo 356258" width="4.421" height="2.817" transform="translate(342.028 32.607)" fill="#ccdaff"/>
              <rect id="Rectángulo_356259" data-name="Rectángulo 356259" width="34.051" height="2.817" transform="translate(350.541 32.607)" fill="#ccdaff"/>
              <rect id="Rectángulo_356260" data-name="Rectángulo 356260" width="4.421" height="2.817" transform="translate(342.028 38.187)" fill="#ccdaff"/>
              <rect id="Rectángulo_356261" data-name="Rectángulo 356261" width="20.954" height="2.817" transform="translate(350.542 38.187)" fill="#ccdaff"/>
              <rect id="Rectángulo_356262" data-name="Rectángulo 356262" width="4.421" height="2.817" transform="translate(342.028 43.766)" fill="#ccdaff"/>
              <rect id="Rectángulo_356263" data-name="Rectángulo 356263" width="9.822" height="2.817" transform="translate(350.542 43.766)" fill="#ccdaff"/>
              <rect id="Rectángulo_356264" data-name="Rectángulo 356264" width="4.421" height="2.817" transform="translate(342.028 49.347)" fill="#ccdaff"/>
              <rect id="Rectángulo_356265" data-name="Rectángulo 356265" width="27.258" height="2.817" transform="translate(350.541 49.347)" fill="#ccdaff"/>
              <path id="Trazado_730051" data-name="Trazado 730051" d="M225.867,339.175H71.937a153.773,153.773,0,0,1,76.94-133.348l12.836,22.23,12.829,22.222L187.372,272.5,200.2,294.724l12.829,22.221h.007Z" transform="translate(-9.633 -27.561)" fill="#ccdaff"/>
              <path id="Trazado_730052" data-name="Trazado 730052" d="M403.6,339.175H249.665l12.829-22.23h.008l12.83-22.221L288.161,272.5l12.829-22.222,12.829-22.222,12.836-22.23A153.774,153.774,0,0,1,403.6,339.175" transform="translate(-33.431 -27.561)" fill="#759aff"/>
              <path id="Trazado_730053" data-name="Trazado 730053" d="M314.754,202.646l-12.836,22.229L289.088,247.1,276.258,269.32l-12.829,22.222L250.6,313.764h-.007l-12.829,22.23-12.829-22.23h-.008L212.1,291.542,199.267,269.32,186.438,247.1l-12.829-22.222-12.836-22.229a154.291,154.291,0,0,1,153.982,0" transform="translate(-21.528 -24.379)" fill="#a6beff"/>
              <g id="Grupo_1019398" data-name="Grupo 1019398" transform="translate(62.305 157.685)" style="mix-blend-mode: multiply;isolation: isolate">
                <g id="Grupo_1019397" data-name="Grupo 1019397">
                  <g id="Grupo_1019396" data-name="Grupo 1019396" clip-path="url(#clip-path-3)">
                    <path id="Trazado_730054" data-name="Trazado 730054" d="M379.8,335.993H367.716a141.848,141.848,0,1,0-283.7,0H71.938a153.93,153.93,0,1,1,307.86,0" transform="translate(-71.938 -182.064)" fill="#dee7ff"/>
                  </g>
                </g>
              </g>
              <path id="Trazado_730055" data-name="Trazado 730055" d="M229.451,354.055a17.524,17.524,0,1,0,17.432-17.616,17.524,17.524,0,0,0-17.432,17.616" transform="translate(-30.724 -45.05)" fill="#094a84"/>
              <rect id="Rectángulo_356267" data-name="Rectángulo 356267" width="307.803" height="15.204" transform="translate(62.362 311.232)" fill="#0045ad"/>
              <path id="Trazado_730056" data-name="Trazado 730056" d="M27.619,29.119l13.684,24a27.623,27.623,0,1,1,7.243-42.024Z" transform="translate(0 -0.201)" fill="#ccdaff"/>
              <path id="Trazado_730057" data-name="Trazado 730057" d="M65.2,21.367l-26.643,7.3L59.485,10.64A27.5,27.5,0,0,1,65.2,21.367" transform="translate(-5.163 -1.425)" fill="#fcc6c9"/>
              <path id="Trazado_730058" data-name="Trazado 730058" d="M64.147,33.759a27.616,27.616,0,0,1-13.935,24l-13.683-24,26.728-6.988a27.65,27.65,0,0,1,.891,6.988" transform="translate(-4.891 -3.585)" fill="#a6beff"/>
              <line id="Línea_309" data-name="Línea 309" x2="44.994" transform="translate(12.59 70.892)" fill="none" stroke="#c2c2c2" stroke-linecap="round" stroke-linejoin="round" stroke-width="5"/>
              <line id="Línea_310" data-name="Línea 310" x2="3.457" transform="translate(3.519 70.892)" fill="none" stroke="#c2c2c2" stroke-linecap="round" stroke-linejoin="round" stroke-width="5"/>
              <line id="Línea_311" data-name="Línea 311" x2="3.457" transform="translate(3.519 77.691)" fill="none" stroke="#c2c2c2" stroke-linecap="round" stroke-linejoin="round" stroke-width="5"/>
              <line id="Línea_312" data-name="Línea 312" x2="3.457" transform="translate(12.496 84.491)" fill="none" stroke="#c2c2c2" stroke-linecap="round" stroke-linejoin="round" stroke-width="5"/>
              <line id="Línea_313" data-name="Línea 313" x2="3.457" transform="translate(12.496 91.29)" fill="none" stroke="#c2c2c2" stroke-linecap="round" stroke-linejoin="round" stroke-width="5"/>
              <line id="Línea_314" data-name="Línea 314" x2="3.457" transform="translate(12.496 98.089)" fill="none" stroke="#c2c2c2" stroke-linecap="round" stroke-linejoin="round" stroke-width="5"/>
              <line id="Línea_315" data-name="Línea 315" x2="11.15" transform="translate(46.434 77.691)" fill="none" stroke="#ff4f5b" stroke-linecap="round" stroke-linejoin="round" stroke-width="5"/>
              <line id="Línea_316" data-name="Línea 316" x2="28.121" transform="translate(12.59 77.691)" fill="none" stroke="#c2c2c2" stroke-linecap="round" stroke-linejoin="round" stroke-width="5"/>
              <line id="Línea_317" data-name="Línea 317" x2="44.994" transform="translate(21.568 84.491)" fill="none" stroke="#fce1d4" stroke-linecap="round" stroke-linejoin="round" stroke-width="5"/>
              <line id="Línea_318" data-name="Línea 318" x2="38.998" transform="translate(21.568 91.29)" fill="none" stroke="#c2c2c2" stroke-linecap="round" stroke-linejoin="round" stroke-width="5"/>
              <line id="Línea_319" data-name="Línea 319" x2="19.537" transform="translate(21.568 98.089)" fill="none" stroke="#c2c2c2" stroke-linecap="round" stroke-linejoin="round" stroke-width="5"/>
              <rect id="Rectángulo_356268" data-name="Rectángulo 356268" width="5.868" height="3.047" transform="translate(203.494 51.485)" fill="#ccdaff"/>
              <rect id="Rectángulo_356269" data-name="Rectángulo 356269" width="75.197" height="55.601" transform="translate(198.335 3.703)" fill="none" stroke="#a6beff" stroke-linecap="round" stroke-linejoin="round" stroke-width="3" stroke-dasharray="24.998 24.998"/>
              <path id="Trazado_730059" data-name="Trazado 730059" d="M236.209,41.222l27.572-15.434,1.125-.63.562-.314.281-.158.14-.078.017-.01c.006,0,.012-.01.017,0l.032.054.065.107L268.1,28.19l.52.857.26.428.032.054.016.027.009.013c0,.008.006.008.013,0l.152-.081.3-.161,2.429-1.291,4.616-2.453,10.263-5.454,1.8,3.394,1.394-2.232,1.271-2.032,3.716-5.948-7.009-.248L285.5,12.98l-2.63-.093,1.8,3.394-10.264,5.454-2.517,1.337-1.139.605-.142.075-.071.038c-.006.009-.011-.013-.016-.018l-.016-.027-.033-.055-.264-.435-.528-.87-2.112-3.48L267.5,18.8l-.033-.054c0-.016-.016-.005-.029,0l-.037.021-.3.168-.6.336-1.2.671-2.4,1.343L234.08,37.418Z" transform="translate(-31.344 -1.726)" fill="#b0c5ff"/>
              <rect id="Rectángulo_356270" data-name="Rectángulo 356270" width="64.569" height="1.924" transform="translate(203.494 53.57)" fill="#a6beff"/>
              <rect id="Rectángulo_356271" data-name="Rectángulo 356271" width="5.868" height="4.852" transform="translate(213.277 49.68)" fill="#ccdaff"/>
              <rect id="Rectángulo_356272" data-name="Rectángulo 356272" width="5.868" height="9.217" transform="translate(223.061 45.315)" fill="#ccdaff"/>
              <rect id="Rectángulo_356273" data-name="Rectángulo 356273" width="5.868" height="16.38" transform="translate(232.845 38.152)" fill="#ccdaff"/>
              <rect id="Rectángulo_356274" data-name="Rectángulo 356274" width="5.868" height="22.568" transform="translate(242.628 31.964)" fill="#ccdaff"/>
              <rect id="Rectángulo_356275" data-name="Rectángulo 356275" width="5.868" height="26.097" transform="translate(252.412 28.435)" fill="#ccdaff"/>
              <rect id="Rectángulo_356276" data-name="Rectángulo 356276" width="5.868" height="32.987" transform="translate(262.195 21.545)" fill="#ccdaff"/>
              <rect id="Rectángulo_356277" data-name="Rectángulo 356277" width="5.647" height="5.647" transform="translate(195.603 1.299)" fill="none" stroke="#a6beff" stroke-linecap="round" stroke-linejoin="round" stroke-width="3" stroke-dasharray="24.998 24.998"/>
              <rect id="Rectángulo_356278" data-name="Rectángulo 356278" width="5.647" height="5.647" transform="translate(270.709 1.299)" fill="none" stroke="#a6beff" stroke-linecap="round" stroke-linejoin="round" stroke-width="3" stroke-dasharray="24.998 24.998"/>
              <rect id="Rectángulo_356279" data-name="Rectángulo 356279" width="5.647" height="5.647" transform="translate(195.603 56.482)" fill="none" stroke="#a6beff" stroke-linecap="round" stroke-linejoin="round" stroke-width="3" stroke-dasharray="24.998 24.998"/>
              <rect id="Rectángulo_356280" data-name="Rectángulo 356280" width="5.647" height="5.647" transform="translate(270.709 56.482)" fill="none" stroke="#a6beff" stroke-linecap="round" stroke-linejoin="round" stroke-width="3" stroke-dasharray="24.998 24.998"/>
              <rect id="Rectángulo_356281" data-name="Rectángulo 356281" width="5.868" height="3.047" transform="translate(213.277 51.485)" fill="#a6beff"/>
              <rect id="Rectángulo_356282" data-name="Rectángulo 356282" width="5.868" height="4.321" transform="translate(223.061 50.211)" fill="#a6beff"/>
              <rect id="Rectángulo_356283" data-name="Rectángulo 356283" width="5.868" height="6.759" transform="translate(232.845 47.773)" fill="#a6beff"/>
              <rect id="Rectángulo_356284" data-name="Rectángulo 356284" width="5.868" height="9.452" transform="translate(242.628 45.08)" fill="#a6beff"/>
              <rect id="Rectángulo_356285" data-name="Rectángulo 356285" width="5.868" height="12.218" transform="translate(252.412 42.314)" fill="#a6beff"/>
              <rect id="Rectángulo_356286" data-name="Rectángulo 356286" width="5.868" height="14.838" transform="translate(262.195 39.694)" fill="#a6beff"/>
              <path id="Trazado_730060" data-name="Trazado 730060" d="M97.564,364.805l17.661-17.394,18.2,17.394,23.013-30.239L175.7,364.805l23.415-44.287" transform="translate(-13.064 -42.919)" fill="none" stroke="#aab1ff" stroke-linecap="round" stroke-linejoin="round" stroke-width="5"/>
              <path id="Trazado_730061" data-name="Trazado 730061" d="M101.41,370.95a4.549,4.549,0,1,1-4.549-4.549,4.549,4.549,0,0,1,4.549,4.549" transform="translate(-12.361 -49.063)" fill="#aab1ff"/>
              <path id="Trazado_730062" data-name="Trazado 730062" d="M101.41,370.95a4.549,4.549,0,1,1-4.549-4.549A4.549,4.549,0,0,1,101.41,370.95Z" transform="translate(-12.361 -49.063)" fill="none" stroke="#fff" stroke-miterlimit="10" stroke-width="3"/>
              <path id="Trazado_730063" data-name="Trazado 730063" d="M142.812,370.95a4.549,4.549,0,1,1-4.55-4.549,4.549,4.549,0,0,1,4.55,4.549" transform="translate(-17.905 -49.063)" fill="#aab1ff"/>
              <path id="Trazado_730064" data-name="Trazado 730064" d="M142.812,370.95a4.549,4.549,0,1,1-4.55-4.549A4.549,4.549,0,0,1,142.812,370.95Z" transform="translate(-17.905 -49.063)" fill="none" stroke="#fff" stroke-miterlimit="10" stroke-width="3"/>
              <path id="Trazado_730065" data-name="Trazado 730065" d="M121.8,350.866a4.549,4.549,0,1,1-4.549-4.549,4.549,4.549,0,0,1,4.549,4.549" transform="translate(-15.092 -46.373)" fill="#aab1ff"/>
              <path id="Trazado_730066" data-name="Trazado 730066" d="M121.8,350.866a4.549,4.549,0,1,1-4.549-4.549A4.549,4.549,0,0,1,121.8,350.866Z" transform="translate(-15.092 -46.373)" fill="none" stroke="#fff" stroke-miterlimit="10" stroke-width="3"/>
              <path id="Trazado_730067" data-name="Trazado 730067" d="M169.383,336.036a4.549,4.549,0,1,1-4.55-4.549,4.55,4.55,0,0,1,4.55,4.549" transform="translate(-21.463 -44.387)" fill="#aab1ff"/>
              <path id="Trazado_730068" data-name="Trazado 730068" d="M169.383,336.036a4.549,4.549,0,1,1-4.55-4.549A4.55,4.55,0,0,1,169.383,336.036Z" transform="translate(-21.463 -44.387)" fill="none" stroke="#fff" stroke-miterlimit="10" stroke-width="3"/>
              <path id="Trazado_730069" data-name="Trazado 730069" d="M191.629,370.95a4.549,4.549,0,1,1-4.55-4.549,4.549,4.549,0,0,1,4.55,4.549" transform="translate(-24.442 -49.063)" fill="#aab1ff"/>
              <path id="Trazado_730070" data-name="Trazado 730070" d="M191.629,370.95a4.549,4.549,0,1,1-4.55-4.549A4.549,4.549,0,0,1,191.629,370.95Z" transform="translate(-24.442 -49.063)" fill="none" stroke="#fff" stroke-miterlimit="10" stroke-width="3"/>
              <path id="Trazado_730071" data-name="Trazado 730071" d="M211.7,315.065h0a5.263,5.263,0,1,0,7.894,4.557,5.263,5.263,0,0,0-7.894-4.557" transform="translate(-27.995 -42.093)" fill="#aab1ff"/>
              <path id="Trazado_730072" data-name="Trazado 730072" d="M211.7,315.065h0a5.263,5.263,0,1,0,7.894,4.557A5.263,5.263,0,0,0,211.7,315.065Z" transform="translate(-27.995 -42.093)" fill="none" stroke="#fff" stroke-miterlimit="10" stroke-width="3"/>
              <rect id="Rectángulo_356287" data-name="Rectángulo 356287" width="82.367" height="41.781" rx="13.919" transform="translate(88.435 84.599)" fill="none" stroke="#a6beff" stroke-miterlimit="10" stroke-width="3"/>
              <path id="Trazado_730073" data-name="Trazado 730073" d="M176.831,112.282H111.548a2.727,2.727,0,1,1,0-5.454h65.283a2.727,2.727,0,1,1,0,5.454" transform="translate(-14.572 -14.305)" fill="#ccdaff"/>
              <path id="Trazado_730074" data-name="Trazado 730074" d="M176.831,124.1H111.548a2.727,2.727,0,1,1,0-5.454h65.283a2.727,2.727,0,1,1,0,5.454" transform="translate(-14.572 -15.888)" fill="#ccdaff"/>
              <path id="Trazado_730075" data-name="Trazado 730075" d="M176.831,135.928H111.548a2.727,2.727,0,1,1,0-5.454h65.283a2.727,2.727,0,1,1,0,5.454" transform="translate(-14.572 -17.471)" fill="#ccdaff"/>
              <path id="Trazado_730076" data-name="Trazado 730076" d="M151.139,109.213a4.94,4.94,0,1,1-4.939-4.939,4.939,4.939,0,0,1,4.939,4.939" transform="translate(-18.915 -13.963)" fill="#ff6965"/>
              <path id="Trazado_730077" data-name="Trazado 730077" d="M134.266,121.035a4.94,4.94,0,1,1-4.94-4.939,4.94,4.94,0,0,1,4.94,4.939" transform="translate(-16.656 -15.546)" fill="#ffba5f"/>
              <path id="Trazado_730078" data-name="Trazado 730078" d="M170.861,132.858a4.94,4.94,0,1,1-4.939-4.939,4.939,4.939,0,0,1,4.939,4.939" transform="translate(-21.556 -17.129)" fill="#ff7ea4"/>
              <path id="Trazado_730079" data-name="Trazado 730079" d="M134.092,27.337H114.629a12.918,12.918,0,1,1,0-25.837h19.463a12.918,12.918,0,1,1,0,25.837" transform="translate(-13.619 -0.201)" fill="#aab1ff"/>
              <g id="Grupo_1019401" data-name="Grupo 1019401" transform="translate(91.958 4.906)" style="mix-blend-mode: screen;isolation: isolate">
                <g id="Grupo_1019400" data-name="Grupo 1019400">
                  <g id="Grupo_1019399" data-name="Grupo 1019399" clip-path="url(#clip-path-4)">
                    <line id="Línea_320" data-name="Línea 320" x2="33.805" transform="translate(2.165 2.166)" fill="none" stroke="#fff" stroke-linecap="round" stroke-linejoin="round" stroke-width="5"/>
                  </g>
                </g>
              </g>
              <g id="Grupo_1019404" data-name="Grupo 1019404" transform="translate(103.389 12.532)" style="mix-blend-mode: screen;isolation: isolate">
                <g id="Grupo_1019403" data-name="Grupo 1019403">
                  <g id="Grupo_1019402" data-name="Grupo 1019402" clip-path="url(#clip-path-5)">
                    <line id="Línea_321" data-name="Línea 321" x2="22.372" transform="translate(2.165 2.165)" fill="none" stroke="#fff" stroke-linecap="round" stroke-linejoin="round" stroke-width="5"/>
                  </g>
                </g>
              </g>
              <g id="Grupo_1019407" data-name="Grupo 1019407" transform="translate(91.958 12.532)" style="mix-blend-mode: screen;isolation: isolate">
                <g id="Grupo_1019406" data-name="Grupo 1019406">
                  <g id="Grupo_1019405" data-name="Grupo 1019405" clip-path="url(#clip-path-6)">
                    <line id="Línea_322" data-name="Línea 322" x2="5.941" transform="translate(2.165 2.165)" fill="none" stroke="#fff" stroke-linecap="round" stroke-linejoin="round" stroke-width="5"/>
                  </g>
                </g>
              </g>
              <g id="Grupo_1019410" data-name="Grupo 1019410" transform="translate(91.958 20.158)" style="mix-blend-mode: screen;isolation: isolate">
                <g id="Grupo_1019409" data-name="Grupo 1019409">
                  <g id="Grupo_1019408" data-name="Grupo 1019408" clip-path="url(#clip-path-6)">
                    <line id="Línea_323" data-name="Línea 323" x2="5.941" transform="translate(2.165 2.165)" fill="none" stroke="#fff" stroke-linecap="round" stroke-linejoin="round" stroke-width="5"/>
                  </g>
                </g>
              </g>
              <path id="Trazado_730080" data-name="Trazado 730080" d="M160.074,49.227H140.611a12.918,12.918,0,1,1,0-25.837h19.463a12.918,12.918,0,1,1,0,25.837" transform="translate(-17.098 -3.132)" fill="#faa0a5"/>
              <g id="Grupo_1019413" data-name="Grupo 1019413" transform="translate(114.461 25.49)" style="mix-blend-mode: screen;isolation: isolate">
                <g id="Grupo_1019412" data-name="Grupo 1019412">
                  <g id="Grupo_1019411" data-name="Grupo 1019411" clip-path="url(#clip-path-4)">
                    <line id="Línea_324" data-name="Línea 324" x2="33.805" transform="translate(2.166 2.166)" fill="none" stroke="#fff" stroke-linecap="round" stroke-linejoin="round" stroke-width="5"/>
                  </g>
                </g>
              </g>
              <g id="Grupo_1019416" data-name="Grupo 1019416" transform="translate(125.893 33.116)" style="mix-blend-mode: screen;isolation: isolate">
                <g id="Grupo_1019415" data-name="Grupo 1019415">
                  <g id="Grupo_1019414" data-name="Grupo 1019414" clip-path="url(#clip-path-5)">
                    <line id="Línea_325" data-name="Línea 325" x2="22.372" transform="translate(2.165 2.165)" fill="none" stroke="#fff" stroke-linecap="round" stroke-linejoin="round" stroke-width="5"/>
                  </g>
                </g>
              </g>
              <g id="Grupo_1019419" data-name="Grupo 1019419" transform="translate(114.461 33.116)" style="mix-blend-mode: screen;isolation: isolate">
                <g id="Grupo_1019418" data-name="Grupo 1019418">
                  <g id="Grupo_1019417" data-name="Grupo 1019417" clip-path="url(#clip-path-6)">
                    <line id="Línea_326" data-name="Línea 326" x2="5.941" transform="translate(2.166 2.165)" fill="none" stroke="#fff" stroke-linecap="round" stroke-linejoin="round" stroke-width="5"/>
                  </g>
                </g>
              </g>
              <path id="Trazado_730081" data-name="Trazado 730081" d="M186.116,71.115H166.653a12.919,12.919,0,0,1,0-25.837h19.463a12.919,12.919,0,0,1,0,25.837" transform="translate(-20.586 -6.063)" fill="#d1d3ed"/>
              <g id="Grupo_1019422" data-name="Grupo 1019422" transform="translate(151.935 43.546)" style="mix-blend-mode: screen;isolation: isolate">
                <g id="Grupo_1019421" data-name="Grupo 1019421">
                  <g id="Grupo_1019420" data-name="Grupo 1019420" clip-path="url(#clip-path-11)">
                    <line id="Línea_327" data-name="Línea 327" x2="18.885" transform="translate(2.166 2.165)" fill="none" stroke="#fff" stroke-linecap="round" stroke-linejoin="round" stroke-width="5"/>
                  </g>
                </g>
              </g>
              <g id="Grupo_1019425" data-name="Grupo 1019425" transform="translate(137.016 43.546)" style="mix-blend-mode: screen;isolation: isolate">
                <g id="Grupo_1019424" data-name="Grupo 1019424">
                  <g id="Grupo_1019423" data-name="Grupo 1019423" clip-path="url(#clip-path-12)">
                    <line id="Línea_328" data-name="Línea 328" x2="7.453" transform="translate(2.166 2.165)" fill="none" stroke="#fff" stroke-linecap="round" stroke-linejoin="round" stroke-width="5"/>
                  </g>
                </g>
              </g>
              <g id="Grupo_1019428" data-name="Grupo 1019428" transform="translate(137.016 51.172)" style="mix-blend-mode: screen;isolation: isolate">
                <g id="Grupo_1019427" data-name="Grupo 1019427">
                  <g id="Grupo_1019426" data-name="Grupo 1019426" clip-path="url(#clip-path-4)">
                    <line id="Línea_329" data-name="Línea 329" x2="33.805" transform="translate(2.166 2.165)" fill="none" stroke="#fff" stroke-linecap="round" stroke-linejoin="round" stroke-width="5"/>
                  </g>
                </g>
              </g>
              <g id="Grupo_1019431" data-name="Grupo 1019431" transform="translate(137.016 58.798)" style="mix-blend-mode: screen;isolation: isolate">
                <g id="Grupo_1019430" data-name="Grupo 1019430">
                  <g id="Grupo_1019429" data-name="Grupo 1019429" clip-path="url(#clip-path-14)">
                    <line id="Línea_330" data-name="Línea 330" x2="11.236" transform="translate(2.166 2.165)" fill="none" stroke="#fff" stroke-linecap="round" stroke-linejoin="round" stroke-width="5"/>
                  </g>
                </g>
              </g>
              <rect id="Rectángulo_356299" data-name="Rectángulo 356299" width="84.455" height="36.055" transform="translate(301.718 77.047)" fill="none" stroke="#ccdaff" stroke-miterlimit="10" stroke-width="3"/>
              <path id="Trazado_730082" data-name="Trazado 730082" d="M360.034,115.914c4.421-8.5,14.175-20.009,30.82-11.374,9.741,5.052,23.278,20.83,33.422-3.152" transform="translate(-48.21 -13.576)" fill="none" stroke="#ccdaff" stroke-miterlimit="10" stroke-width="5"/>
              <path id="Trazado_730083" data-name="Trazado 730083" d="M362.563,117.673a3,3,0,1,1-2.991-3.152,3.074,3.074,0,0,1,2.991,3.152" transform="translate(-47.748 -15.335)" fill="#ccdaff"/>
              <path id="Trazado_730084" data-name="Trazado 730084" d="M436.736,100.9a3,3,0,1,1-2.991-3.152,3.074,3.074,0,0,1,2.991,3.152" transform="translate(-57.68 -13.089)" fill="#ccdaff"/>
              <path id="Trazado_730085" data-name="Trazado 730085" d="M144.045,184.891a18.921,18.921,0,0,1-18.921,18.921" transform="translate(-16.755 -24.758)" fill="none" stroke="#b3cbd5" stroke-miterlimit="10" stroke-width="28.664"/>
              <path id="Trazado_730086" data-name="Trazado 730086" d="M125.125,163.046a18.921,18.921,0,0,1,18.921,18.921" transform="translate(-16.755 -21.833)" fill="none" stroke="#faa0a5" stroke-miterlimit="10" stroke-width="28.664"/>
              <path id="Trazado_730087" data-name="Trazado 730087" d="M103.279,181.966A18.921,18.921,0,0,1,122.2,163.045" transform="translate(-13.829 -21.832)" fill="none" stroke="#b5aeac" stroke-miterlimit="10" stroke-width="28.664"/>
              <path id="Trazado_730088" data-name="Trazado 730088" d="M122.2,203.812a18.921,18.921,0,0,1-18.921-18.921" transform="translate(-13.829 -24.758)" fill="none" stroke="#69a1fc" stroke-miterlimit="10" stroke-width="28.664"/>
              <path id="Trazado_730089" data-name="Trazado 730089" d="M131.429,205.427l-10.217-5.9v11.8Z" transform="translate(-16.231 -26.718)" fill="#69a1fc"/>
              <path id="Trazado_730090" data-name="Trazado 730090" d="M117.155,162.546l10.217-5.9v11.8Z" transform="translate(-15.687 -20.976)" fill="#faa0a5"/>
              <path id="Trazado_730091" data-name="Trazado 730091" d="M145.885,177.161l-5.9,10.217h11.8Z" transform="translate(-18.745 -23.723)" fill="#b3cbd5"/>
              <path id="Trazado_730092" data-name="Trazado 730092" d="M102.58,191.349l-5.9-10.217h11.8Z" transform="translate(-12.946 -24.254)" fill="#b5aeac"/>
              <line id="Línea_331" data-name="Línea 331" x2="17.209" transform="translate(99.801 154.939)" fill="none" stroke="#c2c2c2" stroke-linecap="round" stroke-linejoin="round" stroke-width="5"/>
              <line id="Línea_332" data-name="Línea 332" x2="1.323" transform="translate(96.331 154.939)" fill="none" stroke="#c2c2c2" stroke-linecap="round" stroke-linejoin="round" stroke-width="5"/>
              <line id="Línea_333" data-name="Línea 333" x2="1.323" transform="translate(96.331 157.539)" fill="none" stroke="#c2c2c2" stroke-linecap="round" stroke-linejoin="round" stroke-width="5"/>
              <line id="Línea_334" data-name="Línea 334" x2="1.323" transform="translate(99.765 160.14)" fill="none" stroke="#c2c2c2" stroke-linecap="round" stroke-linejoin="round" stroke-width="5"/>
              <line id="Línea_335" data-name="Línea 335" x2="1.323" transform="translate(99.765 162.741)" fill="none" stroke="#c2c2c2" stroke-linecap="round" stroke-linejoin="round" stroke-width="5"/>
              <line id="Línea_336" data-name="Línea 336" x2="1.323" transform="translate(99.765 165.341)" fill="none" stroke="#c2c2c2" stroke-linecap="round" stroke-linejoin="round" stroke-width="5"/>
              <line id="Línea_337" data-name="Línea 337" x2="4.265" transform="translate(112.745 157.539)" fill="none" stroke="#faa0a5" stroke-linecap="round" stroke-linejoin="round" stroke-width="5"/>
              <line id="Línea_338" data-name="Línea 338" x2="10.756" transform="translate(99.801 157.539)" fill="none" stroke="#c2c2c2" stroke-linecap="round" stroke-linejoin="round" stroke-width="5"/>
              <line id="Línea_339" data-name="Línea 339" x2="17.209" transform="translate(103.234 160.14)" fill="none" stroke="#faa0a5" stroke-linecap="round" stroke-linejoin="round" stroke-width="5"/>
              <line id="Línea_340" data-name="Línea 340" x2="17.209" transform="translate(103.234 162.741)" fill="none" stroke="#c2c2c2" stroke-linecap="round" stroke-linejoin="round" stroke-width="5"/>
              <line id="Línea_341" data-name="Línea 341" x2="7.473" transform="translate(103.234 165.341)" fill="none" stroke="#c2c2c2" stroke-linecap="round" stroke-linejoin="round" stroke-width="5"/>
              <path id="Trazado_730093" data-name="Trazado 730093" d="M255.663,356.554a12.831,12.831,0,0,1-17.877-3.107l-.014-.02a12.832,12.832,0,0,1,3.121-17.858c.691-.486,107.924-61.041,113.267-64.058l.207-.116s-98,84.66-98.7,85.159" transform="translate(-31.527 -36.341)" fill="#0045ad"/>
              <g id="Grupo_1019434" data-name="Grupo 1019434" transform="translate(206.245 235.054)" style="mix-blend-mode: multiply;isolation: isolate">
                <g id="Grupo_1019433" data-name="Grupo 1019433">
                  <g id="Grupo_1019432" data-name="Grupo 1019432" clip-path="url(#clip-path-15)">
                    <path id="Trazado_730094" data-name="Trazado 730094" d="M256.023,356.554a12.831,12.831,0,0,1-17.877-3.107l-.014-.02,116.389-81.916.207-.116s-98,84.66-98.7,85.159" transform="translate(-238.132 -271.395)" fill="#d0d1d3"/>
                  </g>
                </g>
              </g>
              <path id="Trazado_730095" data-name="Trazado 730095" d="M252.269,360.963a4.971,4.971,0,1,1,1.2-6.926,4.971,4.971,0,0,1-1.2,6.926" transform="translate(-32.731 -47.124)" fill="#fff"/>
              <g id="Grupo_1019437" data-name="Grupo 1019437" transform="translate(211.706 304.802)" style="mix-blend-mode: multiply;isolation: isolate">
                <g id="Grupo_1019436" data-name="Grupo 1019436">
                  <g id="Grupo_1019435" data-name="Grupo 1019435" clip-path="url(#clip-path-16)">
                    <path id="Trazado_730096" data-name="Trazado 730096" d="M245.343,359.758a4.971,4.971,0,0,1,8.13-5.722c-3.216,2.355-5.6,4.026-8.13,5.722" transform="translate(-244.437 -351.926)" fill="#d0d1d3"/>
                  </g>
                </g>
              </g>
              <path id="Trazado_730097" data-name="Trazado 730097" d="M6.776,170.734l7.22,12.5,7.218,12.5,7.22-12.5,7.218-12.5H28.3v-9.589H14.127v9.589Z" transform="translate(-0.907 -21.578)" fill="#ccdaff"/>
              <rect id="Rectángulo_356302" data-name="Rectángulo 356302" width="13.584" height="6.483" transform="translate(13.515 130.753)" fill="#ccdaff"/>
              <rect id="Rectángulo_356303" data-name="Rectángulo 356303" width="13.584" height="3.704" transform="translate(13.515 125.041)" fill="#ccdaff"/>
              <rect id="Rectángulo_356304" data-name="Rectángulo 356304" width="13.583" height="2.497" transform="translate(13.489 119.969)" fill="#ccdaff"/>
              <path id="Trazado_730098" data-name="Trazado 730098" d="M36.736,163.526l7.22-12.5,7.218-12.5,7.22,12.5,7.218,12.5H58.259v9.589H44.088v-9.589Z" transform="translate(-4.919 -18.548)" fill="#ccdaff"/>
              <rect id="Rectángulo_356305" data-name="Rectángulo 356305" width="13.584" height="6.483" transform="translate(39.465 156.898)" fill="#ccdaff"/>
              <rect id="Rectángulo_356306" data-name="Rectángulo 356306" width="13.584" height="3.704" transform="translate(39.465 165.389)" fill="#ccdaff"/>
              <rect id="Rectángulo_356307" data-name="Rectángulo 356307" width="13.583" height="2.497" transform="translate(39.438 171.667)" fill="#ccdaff"/>
              <path id="Trazado_730099" data-name="Trazado 730099" d="M285.329,189.757l.389,1.243a1.16,1.16,0,0,0,1.454.762l3.146-.982a1.16,1.16,0,0,0,.762-1.454l-.388-1.243a1.164,1.164,0,0,1,.546-1.363,17.993,17.993,0,0,0,5.106-4.263,1.161,1.161,0,0,1,1.435-.291l1.155.605a1.161,1.161,0,0,0,1.568-.489l1.53-2.919a1.161,1.161,0,0,0-.489-1.568l-1.155-.605a1.161,1.161,0,0,1-.578-1.346,18.014,18.014,0,0,0,.6-6.625,1.164,1.164,0,0,1,.809-1.225l1.243-.388a1.161,1.161,0,0,0,.762-1.455l-.982-3.145a1.163,1.163,0,0,0-1.455-.763l-1.243.389a1.165,1.165,0,0,1-1.362-.547,17.98,17.98,0,0,0-4.264-5.106,1.161,1.161,0,0,1-.291-1.435l.606-1.155a1.162,1.162,0,0,0-.49-1.568l-2.918-1.53a1.161,1.161,0,0,0-1.568.489l-.606,1.156a1.16,1.16,0,0,1-1.345.577,18,18,0,0,0-6.625-.6,1.164,1.164,0,0,1-1.225-.809l-.389-1.244a1.161,1.161,0,0,0-1.454-.762l-3.146.982a1.161,1.161,0,0,0-.762,1.455l.388,1.243a1.164,1.164,0,0,1-.547,1.362,18,18,0,0,0-5.106,4.264,1.161,1.161,0,0,1-1.435.291l-1.155-.605a1.161,1.161,0,0,0-1.568.489l-1.53,2.919a1.161,1.161,0,0,0,.489,1.568l1.155.605a1.161,1.161,0,0,1,.578,1.346,17.992,17.992,0,0,0-.6,6.624,1.164,1.164,0,0,1-.809,1.226l-1.243.388a1.161,1.161,0,0,0-.762,1.454l.982,3.146a1.161,1.161,0,0,0,1.454.762l1.244-.388a1.164,1.164,0,0,1,1.362.547,17.978,17.978,0,0,0,4.264,5.1,1.162,1.162,0,0,1,.291,1.435l-.606,1.156a1.163,1.163,0,0,0,.489,1.568l2.919,1.53a1.162,1.162,0,0,0,1.568-.49l.606-1.155a1.161,1.161,0,0,1,1.345-.578,17.977,17.977,0,0,0,6.625.6A1.162,1.162,0,0,1,285.329,189.757Zm-2.825-9.048a9.693,9.693,0,0,1-1.97-.178,9.789,9.789,0,0,1-7.919-9.489,9.7,9.7,0,0,1,.178-1.97A9.821,9.821,0,0,1,275.4,164.1a9.663,9.663,0,0,1,1.519-1.268,9.776,9.776,0,1,1,5.584,17.881Z" transform="translate(-35.017 -20.092)" fill="none" stroke="#ccdaff" stroke-linecap="round" stroke-linejoin="round" stroke-width="3"/>
              <path id="Trazado_730100" data-name="Trazado 730100" d="M304.788,168.231a1.161,1.161,0,0,0,.153-1.007l-.982-3.145a1.163,1.163,0,0,0-1.455-.763l-1.243.389a1.165,1.165,0,0,1-1.362-.547,17.98,17.98,0,0,0-4.264-5.106m-8.589,32.777.389,1.243a1.16,1.16,0,0,0,1.454.762l3.146-.982a1.16,1.16,0,0,0,.762-1.454l-.388-1.243a1.164,1.164,0,0,1,.547-1.363,17.993,17.993,0,0,0,5.106-4.263,1.161,1.161,0,0,1,1.435-.291l1.155.605a1.161,1.161,0,0,0,1.568-.489l1.53-2.919m-19.528,1.346a9.693,9.693,0,0,1-1.97-.178,9.789,9.789,0,0,1-7.919-9.489,9.693,9.693,0,0,1,.178-1.97,9.821,9.821,0,0,1,2.608-4.976,9.664,9.664,0,0,1,1.519-1.268,9.776,9.776,0,1,1,5.584,17.881Z" transform="translate(-36.734 -21.164)" fill="none" stroke="#000" stroke-miterlimit="10" stroke-width="3"/>
              <path id="Trazado_730101" data-name="Trazado 730101" d="M357.259,178.5l1.534-.344a1.4,1.4,0,0,0,1.061-1.675l-.871-3.882a1.4,1.4,0,0,0-1.675-1.061l-1.534.345a1.4,1.4,0,0,1-1.585-.793,21.726,21.726,0,0,0-4.627-6.564,1.4,1.4,0,0,1-.208-1.756l.843-1.33a1.4,1.4,0,0,0-.434-1.935l-3.361-2.129a1.4,1.4,0,0,0-1.934.434l-.844,1.331a1.4,1.4,0,0,1-1.676.562,21.707,21.707,0,0,0-7.912-1.377,1.407,1.407,0,0,1-1.394-1.095l-.344-1.534a1.4,1.4,0,0,0-1.675-1.061l-3.882.871a1.4,1.4,0,0,0-1.061,1.675l.345,1.534a1.4,1.4,0,0,1-.793,1.585,21.727,21.727,0,0,0-6.564,4.627,1.4,1.4,0,0,1-1.756.208l-1.33-.843a1.4,1.4,0,0,0-1.935.434l-2.129,3.36a1.4,1.4,0,0,0,.434,1.935l1.331.843a1.4,1.4,0,0,1,.562,1.677,21.7,21.7,0,0,0-1.377,7.911,1.406,1.406,0,0,1-1.095,1.394l-1.534.345a1.4,1.4,0,0,0-1.061,1.675l.871,3.881a1.4,1.4,0,0,0,1.675,1.061l1.534-.344a1.405,1.405,0,0,1,1.585.792,21.728,21.728,0,0,0,4.626,6.564,1.4,1.4,0,0,1,.209,1.756l-.843,1.331a1.4,1.4,0,0,0,.434,1.935l3.36,2.129a1.4,1.4,0,0,0,1.935-.435l.843-1.33a1.4,1.4,0,0,1,1.677-.562,21.72,21.72,0,0,0,7.911,1.377,1.406,1.406,0,0,1,1.394,1.095l.345,1.534a1.4,1.4,0,0,0,1.675,1.061l3.881-.871a1.4,1.4,0,0,0,1.061-1.675l-.344-1.534a1.405,1.405,0,0,1,.792-1.585,21.725,21.725,0,0,0,6.564-4.627,1.4,1.4,0,0,1,1.756-.208l1.331.843a1.4,1.4,0,0,0,1.935-.434l2.129-3.361a1.4,1.4,0,0,0-.435-1.934l-1.33-.844a1.4,1.4,0,0,1-.562-1.676,21.725,21.725,0,0,0,1.377-7.912A1.407,1.407,0,0,1,357.259,178.5ZM346.093,181a11.747,11.747,0,0,1-.409,2.354,11.867,11.867,0,0,1-3.629,5.729,11.805,11.805,0,0,1-10.925,2.452,11.806,11.806,0,0,1-4.552-20.283A11.805,11.805,0,0,1,337.5,168.8a11.861,11.861,0,0,1,5.729,3.629A11.828,11.828,0,0,1,346.093,181Z" transform="translate(-41.342 -20.701)" fill="none" stroke="#ccdaff" stroke-linecap="round" stroke-linejoin="round" stroke-width="3"/>
              <path id="Trazado_730102" data-name="Trazado 730102" d="M328.276,155.644a1.4,1.4,0,0,0-1.061,1.675l.345,1.534a1.4,1.4,0,0,1-.793,1.585,21.727,21.727,0,0,0-6.564,4.627m30.895-.4a1.4,1.4,0,0,1-.208-1.756l.843-1.33a1.4,1.4,0,0,0-.434-1.935l-3.361-2.129a1.4,1.4,0,0,0-1.934.434l-.844,1.331a1.4,1.4,0,0,1-1.676.562M358,179.139a1.4,1.4,0,0,1,.794-.5l1.534-.344a1.4,1.4,0,0,0,1.061-1.675l-.871-3.882a1.4,1.4,0,0,0-1.675-1.061l-1.534.345a1.4,1.4,0,0,1-1.585-.793,21.726,21.726,0,0,0-4.627-6.564m-3.47,16.481a11.747,11.747,0,0,1-.409,2.354,11.867,11.867,0,0,1-3.629,5.729,11.805,11.805,0,0,1-10.925,2.452,11.806,11.806,0,0,1-4.552-20.283,11.805,11.805,0,0,1,10.925-2.452,11.861,11.861,0,0,1,5.729,3.629,11.828,11.828,0,0,1,2.861,8.571Z" transform="translate(-42.876 -20.841)" fill="none" stroke="#000" stroke-miterlimit="10" stroke-width="3"/>
              <path id="Trazado_730103" data-name="Trazado 730103" d="M282.288,202.711l-.83-2a1.931,1.931,0,0,0-2.524-1.044l-5.061,2.1a1.931,1.931,0,0,0-1.044,2.524l.83,2a1.935,1.935,0,0,1-.7,2.338,29.917,29.917,0,0,0-7.813,7.83,1.929,1.929,0,0,1-2.332.7l-2-.829a1.932,1.932,0,0,0-2.523,1.047l-2.093,5.063a1.932,1.932,0,0,0,1.046,2.523l2.006.829a1.932,1.932,0,0,1,1.159,2.142,29.89,29.89,0,0,0,0,11.061,1.936,1.936,0,0,1-1.155,2.15l-2,.83a1.931,1.931,0,0,0-1.043,2.524l2.1,5.061a1.931,1.931,0,0,0,2.524,1.043l2-.83a1.936,1.936,0,0,1,2.338.7,29.916,29.916,0,0,0,7.83,7.813,1.932,1.932,0,0,1,.7,2.333l-.829,2.005a1.93,1.93,0,0,0,1.046,2.522l5.064,2.093a1.93,1.93,0,0,0,2.522-1.046l.829-2.005a1.932,1.932,0,0,1,2.142-1.16,29.907,29.907,0,0,0,11.061,0,1.935,1.935,0,0,1,2.151,1.155l.831,2a1.931,1.931,0,0,0,2.524,1.044l5.061-2.1a1.932,1.932,0,0,0,1.044-2.524l-.83-2a1.936,1.936,0,0,1,.7-2.339,29.912,29.912,0,0,0,7.812-7.83,1.932,1.932,0,0,1,2.333-.7l2.005.829a1.93,1.93,0,0,0,2.522-1.046l2.094-5.064a1.931,1.931,0,0,0-1.047-2.522l-2.005-.829a1.931,1.931,0,0,1-1.159-2.142,29.927,29.927,0,0,0,0-11.061,1.936,1.936,0,0,1,1.155-2.151l2-.83a1.931,1.931,0,0,0,1.044-2.524l-2.1-5.061a1.931,1.931,0,0,0-2.524-1.044l-2,.831a1.935,1.935,0,0,1-2.339-.7,29.938,29.938,0,0,0-7.829-7.812,1.93,1.93,0,0,1-.7-2.333l.829-2.005a1.931,1.931,0,0,0-1.047-2.522l-5.063-2.093a1.93,1.93,0,0,0-2.522,1.046l-.83,2.005a1.929,1.929,0,0,1-2.141,1.159,29.926,29.926,0,0,0-11.061,0A1.936,1.936,0,0,1,282.288,202.711Zm6.042,14.559a16.128,16.128,0,0,1,3.29,0,16.275,16.275,0,0,1,14.542,14.523,16.131,16.131,0,0,1,0,3.29,16.331,16.331,0,0,1-3.569,8.632,16.255,16.255,0,0,1-14.244,5.911,16.338,16.338,0,0,1-8.632-3.569,16.23,16.23,0,0,1-4.749-6.378,16.246,16.246,0,0,1,2.408-16.5,16.3,16.3,0,0,1,10.953-5.909Z" transform="translate(-34.285 -26.715)" fill="none" stroke="#ccdaff" stroke-linecap="round" stroke-linejoin="round" stroke-width="3"/>
              <path id="Trazado_730104" data-name="Trazado 730104" d="M275.446,265.357a1.93,1.93,0,0,0,1.046,2.522l5.064,2.093a1.93,1.93,0,0,0,2.522-1.046l.829-2.005a1.932,1.932,0,0,1,2.142-1.16,29.908,29.908,0,0,0,11.061,0,1.935,1.935,0,0,1,2.151,1.155l.831,2a1.931,1.931,0,0,0,1.877,1.189M317.4,253.166a1.932,1.932,0,0,1,2.333-.7l2.005.829a1.93,1.93,0,0,0,2.522-1.046l2.094-5.064a1.931,1.931,0,0,0-1.047-2.522l-2.005-.829a1.931,1.931,0,0,1-1.159-2.142,29.927,29.927,0,0,0,0-11.061M290.908,220a16.128,16.128,0,0,1,3.29,0,16.275,16.275,0,0,1,14.542,14.523,16.129,16.129,0,0,1,0,3.29,16.331,16.331,0,0,1-3.569,8.632,16.255,16.255,0,0,1-14.244,5.911,16.338,16.338,0,0,1-8.632-3.569,16.231,16.231,0,0,1-4.749-6.378,16.246,16.246,0,0,1,2.408-16.5,16.1,16.1,0,0,1,2.325-2.329,16.339,16.339,0,0,1,8.628-3.58Z" transform="translate(-36.864 -29.448)" fill="none" stroke="#000" stroke-miterlimit="10" stroke-width="3"/>
              <path id="Trazado_730105" data-name="Trazado 730105" d="M254.587,109.91l-5.814,5.814a8.378,8.378,0,1,1,0-11.847l-3.266-3.266c-.2-.2-.409-.391-.62-.577a12.991,12.991,0,0,0-21.489,8.381,19.721,19.721,0,0,0,0,2.771,19.546,19.546,0,0,0,33.217,12.536l.1-.1,5.791-5.791Z" transform="translate(-29.907 -12.963)" fill="#b3cbd5"/>
              <path id="Trazado_730106" data-name="Trazado 730106" d="M270.4,108.641l-6.767-6.767-6.908-6.908A19.539,19.539,0,0,0,223.4,107.4a12.993,12.993,0,0,1,21.489-8.382c.211.186.419.377.62.578l3.267,3.266,5.814,6.033,1.619,1.62,6.28,6.281,7.954-8.027Z" transform="translate(-29.915 -11.95)" fill="#faa0a5"/>
              <path id="Trazado_730107" data-name="Trazado 730107" d="M308.456,113.408a19.547,19.547,0,0,1-33.32,12.437l-.063-.063-.665-.665.724-7.144,7.263-.736.6.624.085.087,3.266,3.265c.2.2.41.392.621.578a12.991,12.991,0,0,0,21.489-8.382" transform="translate(-36.744 -15.186)" fill="#faa0a5"/>
              <path id="Trazado_730108" data-name="Trazado 730108" d="M307.673,107.4a19.546,19.546,0,0,0-33.217-12.536l-.1.1-5.791,5.791,7.921,7.921,5.814-5.814a8.378,8.378,0,1,1,0,11.847l3.265,3.266c.2.2.41.391.621.577a12.994,12.994,0,0,0,17.758-.577h0a12.936,12.936,0,0,0,3.73-7.8,19.7,19.7,0,0,0,0-2.77" transform="translate(-35.962 -11.95)" fill="#759aff"/>
              <path id="Trazado_730109" data-name="Trazado 730109" d="M287.9,116.066l-1.238,1.238-12.879,12.879-1.324,1.324.243-2.406,1.177-11.614,11.807-1.2Z" transform="translate(-36.484 -15.542)" fill="#faa0a5"/>
              <path id="Trazado_730110" data-name="Trazado 730110" d="M450.544,230.512l-6.137,1.264a.977.977,0,0,1-1.138-1.218l4.22-15.181a.977.977,0,0,1,.844-.709l7.034-.7a.986.986,0,0,1,.547.1l.115.061a.976.976,0,0,1,.469,1.2l-5.233,14.556a.972.972,0,0,1-.721.625" transform="translate(-59.351 -28.651)" fill="#100a31"/>
              <path id="Trazado_730111" data-name="Trazado 730111" d="M451.424,231.084l-6.069.719a.952.952,0,0,1-1.028-1.2l4.135-14.624a.952.952,0,0,1,.833-.689l6.078-.531a.952.952,0,0,1,1,1.211L452.227,230.4a.951.951,0,0,1-.8.682" transform="translate(-59.492 -28.756)" fill="#100a31"/>
              <path id="Trazado_730112" data-name="Trazado 730112" d="M426.047,211.787a35.325,35.325,0,0,1-2.352-3.651c-2.325-5,.857-13,.3-18.49a9.018,9.018,0,0,0-.254-1.407,12.767,12.767,0,0,0-25.279,2.54c0,.138.006.274.01.411,0,.04-.009.078-.01.118-.114,2.477-2.648,7.747-4.245,9.977-2.2,3.078-4.02,6.884-3.081,10.552.344,1.342-.644,7.681-1.8,9.389a29.946,29.946,0,0,0-4.4,12.383c0,13.054,17.526,11.887,22.452,12.3,3.515.291,7.234.395,10.362-1.236,4.338-2.261,6.432-7.222,8-11.855a43.35,43.35,0,0,0,2.51-10.558,17.3,17.3,0,0,0-2.222-10.467" transform="translate(-51.545 -23.837)" fill="#100a31"/>
              <path id="Trazado_730113" data-name="Trazado 730113" d="M442.4,365.929c-2.218,1.3-18.572-.01-17.789-2.48a8.469,8.469,0,0,0,.3-1.407c.608-6.19-3.693-16.776-4.59-22.719-1.25-8.258-3.232-16.435-5.269-24.594q-.33-1.315-.657-2.63-.543-2.172-1.08-4.341-.327-1.325-.649-2.648c-.708-2.919-1.387-5.839-2.011-8.764-1.474-6.936-3.656-23.56,8.2-23.339,6.877.129,6.111,9.644,7.249,17a112,112,0,0,1,1.25,12.053c.035.7.062,1.391.083,2.072l.016.535c.023.8.036,1.6.046,2.389.068,5.348,1.161,10.927,1.655,18.589.432,6.691,1.253,31.932,2.493,32.955,1.617,1.335,9.016,3.4,11.02,4.881,1.791,1.329.592,1.95-.26,2.45" transform="translate(-54.83 -36.557)" fill="#ffac75"/>
              <path id="Trazado_730114" data-name="Trazado 730114" d="M434.989,328.121c-3.766,7.176-9.161,13.725-12.373,21.26a14.638,14.638,0,0,0-.522,8.191c.045.241.081.477.108.711.763,6.869-6.452,10.419-5.336-2.977.174-2.091-1.394.871-1.743-6.622.268-.522,1.772-2.368,2.07-3.079,3.093-7.4,7.914-22.588,10.128-28.288,1.627-4.189,4.687-9.517,4.182-14.115-.322-2.944-12.124-21.59-10.8-33.216.993-8.728,3.547-13.673,9.229-4.948,5.782,8.879,15.042,25.476,16.206,34.5.7,5.4-6.258,19.252-11.153,28.579" transform="translate(-55.587 -34.877)" fill="#ffac75"/>
              <path id="Trazado_730115" data-name="Trazado 730115" d="M403.84,214.09c-3.485,14.29.519,31.425,1.569,43.391,10.619.344,17.078.7,25.966-2.614-2.72-12.745-3.66-25.442-4.88-39.732-3.66-3.311-15.335-4.88-22.654-1.045" transform="translate(-53.889 -28.367)" fill="#fff"/>
              <path id="Trazado_730116" data-name="Trazado 730116" d="M432.261,216.495c2.437,2.285,3.236,5.756,4.414,8.882.978,2.6,3.077,4.809,3.077,7.582,0,1.045-1.272,1.619-1.65,1.8a38.526,38.526,0,0,0-7.054,4.4q-1.655-2.432-3.244-4.909a7.243,7.243,0,0,1-1.492-4.54q-.491-8.027-.285-16.078c.02-.781,5.754,2.416,6.234,2.866" transform="translate(-57.038 -28.589)" fill="#fff"/>
              <path id="Trazado_730117" data-name="Trazado 730117" d="M405.867,259.364c10.619.344,17.078.7,25.966-2.614a250.425,250.425,0,0,1-4.122-30.844" transform="translate(-54.347 -30.25)" fill="none" stroke="#000" stroke-miterlimit="10" stroke-width="3"/>
              <path id="Trazado_730118" data-name="Trazado 730118" d="M393.959,243.724c-1.569.7,4.88,7.144,11.153,2.963,8.436-5.624,11.712-12.369,20.912-16.555,2.9.534,8.276-.388,9.758-2.266,4.8-6.084-8.748-4.115-11.153-3.136-11.676,6.621-20.27,14.372-30.67,18.994" transform="translate(-52.721 -29.945)" fill="#ffac75"/>
              <path id="Trazado_730119" data-name="Trazado 730119" d="M440.952,237.4c1.986.853,7.807-6.706,8.365-8.365.928-2.763-.649-1.369-.174-5.4.3-2.592,1.917-2.963,3.833-2.963a8.926,8.926,0,0,1,2.266.7c3.67,3.963-4.512,13.441-6.448,16.73-3,5.1-5.4,8.887-11.153,9.584-1.864.226-4.009-7.741-4.008-8.887,2.089-1.391,4.622-3.656,6.448-4.182a8.78,8.78,0,0,0,.871,2.788" transform="translate(-58.065 -29.549)" fill="#ffac75"/>
              <path id="Trazado_730120" data-name="Trazado 730120" d="M411.292,306.988c7.569-.639,27.213-8.006,33.455-8.393,1.058-9.836-12.717-25.762-13.589-37.264-6.97,1.045-16.251.255-26.662-1.219-1.458,5.486-3.608,10.74-3.659,16.38-.077,8.452,10.281,26.14,10.456,30.5" transform="translate(-53.674 -34.83)" fill="#100a31"/>
              <path id="Trazado_730121" data-name="Trazado 730121" d="M411.292,306.988c7.569-.639,27.213-8.006,33.455-8.393,1.058-9.836-12.717-25.762-13.589-37.264-6.97,1.045-16.251.255-26.662-1.219-1.458,5.486-3.608,10.74-3.659,16.38C400.76,284.944,411.118,302.631,411.292,306.988Z" transform="translate(-53.674 -34.83)" fill="none" stroke="#000" stroke-miterlimit="10" stroke-width="3"/>
              <path id="Trazado_730122" data-name="Trazado 730122" d="M418.865,217.472s-7.163-2.307-7.159-7.02c.048-1.083.094-3.2.335-5.395.092-.837.21-1.684.367-2.492.363-1.853.928-3.494,1.818-4.3,1.045-.939,2.545-.723,4.7,1.668,2.221,2.464.812.984.931,5.073.012.424.021.812.026,1.173a33.6,33.6,0,0,0,.181,3.983c0,.018.005.037.007.055.692,4.944-1.207,7.251-1.207,7.251" transform="translate(-55.129 -26.48)" fill="#ffac75"/>
              <path id="Trazado_730123" data-name="Trazado 730123" d="M420.03,210.911q-1.537-.517-3.037-1.136a10.031,10.031,0,0,1-1.068-.5c-.253-.139-.494-.3-.734-.462a17.961,17.961,0,0,1-1.6-1.187A7.2,7.2,0,0,1,412,205.8a4.657,4.657,0,0,1-.441-1.009c-.121-.4-.256-1.036.139-1.341a.936.936,0,0,1,.669-.143,4.291,4.291,0,0,1,1.105.321c.7.279,1.338.688,2.011,1.025,1.4.7,2.983,1.109,4.186,2.117.059.049.118.1.174.155a33.6,33.6,0,0,0,.181,3.984" transform="translate(-55.093 -27.223)"/>
              <path id="Trazado_730124" data-name="Trazado 730124" d="M424.126,193.671c0,5.943-2.266,12.2-6.273,12.2a8.094,8.094,0,0,1-8.365-8.713c.365-12.4,2.978-12.864,7.057-12.864s7.581,3.436,7.581,9.379" transform="translate(-54.831 -24.677)" fill="#ffac75"/>
              <path id="Trazado_730125" data-name="Trazado 730125" d="M410.489,196.24c.347,1.639-.111,3.124-1.023,3.317s-1.933-.979-2.28-2.618.111-3.124,1.023-3.317,1.932.98,2.28,2.618" transform="translate(-54.508 -25.924)" fill="#ffac75"/>
              <path id="Trazado_730126" data-name="Trazado 730126" d="M420.99,184.722a2.19,2.19,0,0,1,.441,1.069,1.545,1.545,0,0,1-.721,1.243,5.466,5.466,0,0,1-1.411.633,52.346,52.346,0,0,0-4.993,2.019,4.967,4.967,0,0,0-1.054.605c-.488.4-.8.954-1.281,1.362A5.814,5.814,0,0,1,409,192.664l-2.791.413a1.725,1.725,0,0,1-.825-.014,1.392,1.392,0,0,1-.7-.721,3.391,3.391,0,0,1-.409-2.267,4.259,4.259,0,0,1,.5-1.182,14.018,14.018,0,0,1,5.99-5.566,15.437,15.437,0,0,1,6.2-1.543c.895-.033,1.64-.133,2.245.531a18.671,18.671,0,0,1,1.774,2.406" transform="translate(-54.127 -24.338)" fill="#100a31"/>
              <path id="Trazado_730127" data-name="Trazado 730127" d="M446.308,378.207c.859,2.887-5.577,3.137-10.107,2.266-3.5-.673-7.842.7-9.236-1.394-.986-1.478.389-3.378.233-3.873,1.765.817,11.507,2.162,14.925,1.987.358-.018.862-.2.874-.553.016-.517-1.318-1-1.743-1.219,2.788.348,4.771,1.841,5.054,2.788" transform="translate(-57.124 -50.241)" fill="#1a1037"/>
              <path id="Trazado_730128" data-name="Trazado 730128" d="M414.441,373.3c-.386-1.228-1.733-9.419-.819-10.492a27.937,27.937,0,0,0,2.364-2.5c.249.173.56,8.515.866,10.437.382,2.4,3.391,5.835,5.243,1.942.519,3.4.511,6.549-1.817,6.75-3.026.262-4.118-.67-5.837-6.138" transform="translate(-55.344 -48.247)" fill="#1a1037"/>
              <path id="Trazado_730129" data-name="Trazado 730129" d="M421.859,203.684c.054.3-.209.534-.459.74a2.066,2.066,0,0,1-.754.45,2.542,2.542,0,0,1-.851.058,3.974,3.974,0,0,1-1.552-.414c-.616-.326-1.617-1.652-.385-1.519.325.036,4,.672,4,.686" transform="translate(-55.874 -27.181)" fill="#fff"/>
              <path id="Trazado_730130" data-name="Trazado 730130" d="M403.311,213.788c-9.933,2.962-11.393,22.214-11.327,29.1,1.394,1.743,7.493-2.788,9.41-4.356,1.316-1.077,2.659-4.007,1.917-9.758-.7-5.4,7.7-17.283,0-14.987" transform="translate(-52.488 -28.588)" fill="#fff"/>
              <path id="Trazado_730131" data-name="Trazado 730131" d="M391.984,244.8c1.394,1.743,7.493-2.788,9.41-4.356,1.316-1.077,3.011-6.8,3.766-12.706" transform="translate(-52.488 -30.494)" fill="none" stroke="#000" stroke-miterlimit="10" stroke-width="3"/>
              <path id="Trazado_730132" data-name="Trazado 730132" d="M50.09,177.524c-5.236,3.4-4.515,4.766-2.4,8.268,3.327,5.5,11.491,2.848,14.9.569,2.961-1.981,10.966-1.015,7.037-6.16-6.45-8.444-17.776-3.819-19.537-2.677" transform="translate(-6.173 -23.464)" fill="#100a31"/>
              <path id="Trazado_730133" data-name="Trazado 730133" d="M28.253,373.963a34.561,34.561,0,0,1-6.821,2.336,5.017,5.017,0,0,0-1.964.83,1.707,1.707,0,0,0-.609,1.907,2.33,2.33,0,0,0,1.743,1.081c3.685.825,7.524.13,11.222-.633s7.482-1.6,11.217-1.043a4.128,4.128,0,0,0,2.837-.165,3.212,3.212,0,0,0,1.178-2.089,13.388,13.388,0,0,0,.234-4.605A3.908,3.908,0,0,0,45.9,368.7a4.528,4.528,0,0,0-2.086-.56,26.532,26.532,0,0,0-7.352-.044c-.944.17-2.386.385-3,1.18a18.093,18.093,0,0,1-1.944,2.475,14.242,14.242,0,0,1-3.257,2.216" transform="translate(-2.511 -49.256)" fill="#100a31"/>
              <path id="Trazado_730134" data-name="Trazado 730134" d="M50.553,363.751c-4.621-3.228-10.595-3.7-16.04-4.077,6-13.155,9.317-31.69,13.961-45.387,2.131-6.28,7.852-27.108,19.031-23.433,11.736,3.858-13.606,63.127-16.952,72.9" transform="translate(-4.621 -38.889)" fill="#100a31"/>
              <path id="Trazado_730135" data-name="Trazado 730135" d="M84.477,360.663a16.5,16.5,0,0,1,.967,7.933,8.654,8.654,0,0,0-.184,1.793,2.013,2.013,0,0,0,.77,1.564,1.959,1.959,0,0,0,2.207-.209,5.734,5.734,0,0,0,1.421-1.869q1.029-1.829,2.057-3.658c1.042-1.852,2.117-3.841,1.976-5.961-.126-1.906-1.229-3.648-1.336-5.555-.157-2.8,1.841-5.32,1.988-8.122a2.492,2.492,0,0,0-.748-2.158,3.075,3.075,0,0,0-1.947-.4l-3.762.073a5.275,5.275,0,0,0-2.909.624,4.539,4.539,0,0,0-1.246,1.453,15.917,15.917,0,0,0-2.516,7.193c-.016,1.159.865,2.2,1.391,3.179a30.1,30.1,0,0,1,1.872,4.121" transform="translate(-10.875 -46.065)" fill="#100a31"/>
              <path id="Trazado_730136" data-name="Trazado 730136" d="M22.134,209.5c2.442,4.273,3.866,7.936,6.1,10.174,1.168,3.612,1.628,7.529,2.645,11.8,1.594,6.692,4.015,16.51,12.258,15.393a19.4,19.4,0,0,0,5.2-1.463c.32-.139.633-.287.944-.442a20.894,20.894,0,0,0,2.28-1.324q.873-.581,1.692-1.245c.019-.016.039-.033.06-.048,7.325-5.962,11.354-16.549,10.853-25.478-.321-5.709-3.88-8.764-8.476-2.946-3.7,4.68-7.146,11.452-10.455,17.153-.79,1.361-1.571,2.664-2.346,3.86v0a.193.193,0,0,1-.244.077c-1.691-.562-9.025-16.975-9.918-18.84a17.726,17.726,0,0,0-5.836-6.573c-.747-.457-1.025-2.087-1.795-2.248l-.037-.008a3.889,3.889,0,0,0-2.692.232,1.265,1.265,0,0,0-.236.187c-.381.38-.442.96,0,1.736" transform="translate(-2.922 -27.748)" fill="#ffac75"/>
              <path id="Trazado_730137" data-name="Trazado 730137" d="M69.913,210.088c5.5,8.932-1.648,14.832-6.59,21.571-2,2.733-2.247,11.108-5.743,11.186-1.558.034-10.648-6.178-11.468-7.811-1.187-2.365,2.684-4.577,3.752-6.452,2.169-3.806,4.375-7.835,6.379-11.678,3.017-5.792,10.177-12.492,13.67-6.815" transform="translate(-6.145 -27.843)" fill="#fff"/>
              <path id="Trazado_730138" data-name="Trazado 730138" d="M69.913,210.088c5.5,8.932-1.648,14.832-6.59,21.571-2,2.733-2.247,11.108-5.743,11.186-1.558.034-10.648-6.178-11.468-7.811-1.187-2.365,2.684-4.577,3.752-6.452,2.169-3.806,4.375-7.835,6.379-11.678C59.26,211.112,66.419,204.412,69.913,210.088Z" transform="translate(-6.145 -27.843)" fill="none" stroke="#000" stroke-miterlimit="10" stroke-width="3"/>
              <path id="Trazado_730139" data-name="Trazado 730139" d="M55.876,185.666a77.976,77.976,0,0,0,.563,10.2c-2.877-5.464-3.665-12.485-2.778-14.1,3.964-7.207,2.442,1.972,2.215,3.9" transform="translate(-7.139 -23.975)" fill="#1a1037"/>
              <path id="Trazado_730140" data-name="Trazado 730140" d="M68.772,201.594a55.725,55.725,0,0,0-6.582,5.7c-1.125,1.161-1.589,4.447-.627,5.846,2.413-2.28,10.209-5.714,11.042-8.546-1.834-3.5-1.8-4.353-3.832-3" transform="translate(-8.174 -26.912)" fill="#100a31"/>
              <path id="Trazado_730141" data-name="Trazado 730141" d="M64.236,209.782c-.327-.112-.8-1.232-1.246-2.626a31.413,31.413,0,0,1-1.347-5.72c.138-.458.981.385,1.19-.026a6.961,6.961,0,0,1,3.505-3.384,3.061,3.061,0,0,1,.825-.182,1.546,1.546,0,0,1,1.539.8c.005.009.782-2.1.782-2.085a19.185,19.185,0,0,0,1.162,6.267c.931,2.555-3.244,8.033-6.411,6.958" transform="translate(-8.254 -26.32)" fill="#ffac75"/>
              <path id="Trazado_730142" data-name="Trazado 730142" d="M68.907,198.761a8.124,8.124,0,0,1-1.475,3.66c-2.492,3.151-3.819,3.575-4.719,4.027a20.482,20.482,0,0,1-1.069-4.814c.138-.458.981.385,1.19-.026a6.965,6.965,0,0,1,3.5-3.385,3.064,3.064,0,0,1,.826-.181,1.809,1.809,0,0,1,1.743.718" transform="translate(-8.254 -26.518)"/>
              <path id="Trazado_730143" data-name="Trazado 730143" d="M68.011,189.1c1.19,6.473-2.687,11.733-5.883,13.005-3.684,1.466-8.971-1.454-11.291-10.868-2.288-9.285-.158-11.272,4.66-12.158s11.323,3.548,12.513,10.021" transform="translate(-6.684 -23.965)" fill="#ffac75"/>
              <path id="Trazado_730144" data-name="Trazado 730144" d="M53.268,175.3c-5.294,3.078-7.5,4.5-5.475,7.493,3.179,4.694,11.371,2.2,14.815.136,3-1.793,9.51-2.577,5.723-6.95-6.217-7.177-13.282-1.714-15.063-.679" transform="translate(-6.3 -23.076)" fill="#100a31"/>
              <path id="Trazado_730145" data-name="Trazado 730145" d="M66.073,183.9a66.283,66.283,0,0,0,3.955,10.054c1.568-2.963,2.442-1.788,3.49-6.114.753-3.113.864-10.38-3.33-10.725-4.373-.359-5.052,3.609-4.116,6.785" transform="translate(-8.798 -23.713)" fill="#100a31"/>
              <path id="Trazado_730146" data-name="Trazado 730146" d="M61.427,199.017c-.619,2.944-4.131,3.7-4.662,1.978-.376-1.219,3.757-.961,4.662-1.978" transform="translate(-7.598 -26.649)" fill="#fff"/>
              <path id="Trazado_730147" data-name="Trazado 730147" d="M38.443,309.861c.42,5.367,27.82,23.822,36.65,36.649l9.148-13.443C73.86,326.74,68.472,317.359,61,307.772c9.046-6.508,23.185-20.684,25.219-31.265.879-4.569.407-7.325-1.674-10.763-.29-.478-12.588-.315-13.8-.288q-3.562.078-7.117.314c-2.947.194-3.131.169-4.095,2.888-2.871,8.1-21.736,32.964-21.09,41.2" transform="translate(-5.145 -35.539)" fill="#100a31"/>
              <path id="Trazado_730148" data-name="Trazado 730148" d="M38.443,309.861c.42,5.367,27.82,23.822,36.65,36.649l9.148-13.443C73.86,326.74,68.472,317.359,61,307.772c9.046-6.508,23.185-20.684,25.219-31.265.879-4.569.407-7.325-1.674-10.763-.29-.478-12.588-.315-13.8-.288q-3.562.078-7.117.314c-2.947.194-3.131.169-4.095,2.888C56.662,276.753,37.8,301.622,38.443,309.861Z" transform="translate(-5.145 -35.539)" fill="none" stroke="#000" stroke-miterlimit="10" stroke-width="3"/>
              <path id="Trazado_730149" data-name="Trazado 730149" d="M59.109,261.631a2.36,2.36,0,0,0,2.469,2.64c7.866,1.562,17.092,2.29,25,.88,1.34-.239,2.6-1.972,3.108-3.233a3.516,3.516,0,0,0,.16-1.4q-.42-19.105-1.885-38.168a19.434,19.434,0,0,0-1.429-6.983c-1.862-3.878-5.969-6.068-9.814-8-1.627-.818-3.388-1.659-5.19-1.394a8.979,8.979,0,0,0-3.347,1.5l-4.817,3.012c-1.009.631-3.194,5.1-3.694,7.431a31.151,31.151,0,0,0-.661,5.805c-.137,7.491,1.331,18.185,1.586,25.672.139,4.078-1.484,8.161-1.484,12.238" transform="translate(-7.9 -27.574)" fill="#fff"/>
              <path id="Trazado_730150" data-name="Trazado 730150" d="M59.006,226.473c-.136,7.491,1.332,18.185,1.586,25.672.139,4.078-1.484,8.161-1.484,12.238a2.36,2.36,0,0,0,2.47,2.64c7.865,1.563,17.092,2.291,25,.88,1.339-.238,2.6-1.972,3.108-3.233a3.5,3.5,0,0,0,.16-1.4" transform="translate(-7.9 -30.326)" fill="none" stroke="#000" stroke-miterlimit="10" stroke-width="3"/>
              <path id="Trazado_730151" data-name="Trazado 730151" d="M59.761,273.176a.6.6,0,0,0,.008.075c.226,1.437,1.042,1.443,3.866,1.831,3.022.416,4.853.413,6.137.055,1.917-.535,2.613-1.864,4.222-3.785,3.186-3.8,8.3-6.353,11.976-9.734,2.749-2.524,9.537-7.856,8.054-14.82a10.09,10.09,0,0,0-.407-1.4q-.061-.168-.14-.356c-1.039-2.464-4.3-7.342-7.154-6.963-1.787.236-3.4,4.037-4.712,7.893-.281.826-.547,1.653-.8,2.448a44.657,44.657,0,0,1-1.892,5.439c-2.577,4.6-5.654,9.244-9.789,12.6-2.2,1.787-9.761,3.483-9.369,6.721" transform="translate(-8 -31.876)" fill="#ffac75"/>
              <path id="Trazado_730152" data-name="Trazado 730152" d="M69.754,201.94c-2.724,2.022-4.8,5.365-7.6,7.111,1.275,1.122,2.127,3.074,3.089,4.473,2.413-2.28,7.512-5.752,8.345-8.584-1.094-2.087-1.985-3.431-2.865-3.811-.416-.179-.148.265-.967.812" transform="translate(-8.322 -26.927)" fill="#100a31"/>
              <path id="Trazado_730153" data-name="Trazado 730153" d="M67.161,189.545c-.142,1.705.566,3.156,1.579,3.241s1.951-1.231,2.092-2.936-.565-3.156-1.579-3.24-1.95,1.23-2.092,2.935" transform="translate(-8.991 -24.987)" fill="#ffac75"/>
              <path id="Trazado_730154" data-name="Trazado 730154" d="M79.417,212.816c-7.331,7.5-1.666,14.828,1.666,22.493,1.351,3.108-.895,7.65,2.5,8.5,1.512.378,11.543.792,12.7-.619,1.68-2.044-.768-5.844-1.4-7.909-1.275-4.191-2.538-8.606-3.643-12.8-1.665-6.315-7.17-14.43-11.83-9.664" transform="translate(-10.155 -28.305)" fill="#fff"/>
              <path id="Trazado_730155" data-name="Trazado 730155" d="M75.917,223.729c.469,4.363,3.224,8.742,5.177,13.233,1.351,3.108-.895,7.649,2.5,8.5,1.512.378,11.542.792,12.7-.619,1.68-2.044-.768-5.845-1.4-7.909-1.274-4.191-2.538-8.606-3.643-12.8" transform="translate(-10.166 -29.958)" fill="none" stroke="#000" stroke-miterlimit="10" stroke-width="3"/>
              <path id="Trazado_730156" data-name="Trazado 730156" d="M22.452,207.581c.588,2,6.912,12.247,8.108,9.655.574-1.241-2.358-5.236-2.92-6.119a17.979,17.979,0,0,0-2.46-3.76.329.329,0,0,0-.037-.009,3.889,3.889,0,0,0-2.692.232" transform="translate(-3.006 -27.748)" fill="#ffac75"/>
              <rect id="Rectángulo_356308" data-name="Rectángulo 356308" width="1.481" height="17.499" transform="matrix(0.827, -0.562, 0.562, 0.827, 16.779, 175.38)" fill="#100a31"/>
              <path id="Trazado_730157" data-name="Trazado 730157" d="M30.143,209.972c.82.134,2.512,1.7,2.656,4.172.126,2.176-.948.424-1.858-.831-1.434-1.973-4.489-2.759-4.253-3.276.158-.347,1.174-.438,3.454-.066" transform="translate(-3.572 -28.084)" fill="#ffac75"/>
              <path id="Trazado_730158" data-name="Trazado 730158" d="M59.763,278.606a.6.6,0,0,0,.008.075c.226,1.437,1.042,1.443,3.866,1.831,3.022.416,4.853.413,6.137.055a7.061,7.061,0,0,0-1.453-.456,10.224,10.224,0,0,0-1.748-.084,17.809,17.809,0,0,1-6.81-1.422" transform="translate(-8.003 -37.306)"/>
              <path id="Trazado_730159" data-name="Trazado 730159" d="M58.678,278.011a3.014,3.014,0,0,0,1.738,1.964,8.18,8.18,0,0,0,2.638.594,63.546,63.546,0,0,0,6.878.337" transform="translate(-7.857 -37.227)" fill="none" stroke="#93b6f6" stroke-miterlimit="10" stroke-width="2.331"/>
            </g>
          </g>
        </g>
      </g>
    </g>
  </g>
</svg>
