<svg xmlns="http://www.w3.org/2000/svg" width="21.965" height="21.965" viewBox="0 0 21.965 21.965">
  <g id="Grupo_1019399" data-name="Grupo 1019399" transform="translate(12898.312 11899.889)">
    <path id="Trazado_730043" data-name="Trazado 730043" d="M189.185,698.06a10.983,10.983,0,1,0,10.983,10.983,10.983,10.983,0,0,0-10.983-10.983" transform="translate(-13076.514 -12597.949)" fill="#57dbd8"/>
    <path id="Trazado_730041" data-name="Trazado 730041" d="M222.394,751.919l-.989.989-2.1-2.1a.9.9,0,0,0-1.271,0l-1.275,1.275-1.046-8.023a.9.9,0,1,0-1.782.232l1.282,9.832a.9.9,0,0,0,1.526.519l1.93-1.93,2.1,2.1a.9.9,0,0,0,1.27,0l1.625-1.624a.9.9,0,0,0-1.27-1.27" transform="translate(-13107.368 -12637.005)" fill="#fff"/>
    <path id="Trazado_730042" data-name="Trazado 730042" d="M223.988,747.393l1.93-1.93a.9.9,0,0,0-.519-1.526l-9.832-1.282a.9.9,0,0,0-.232,1.782l8.023,1.046-1.275,1.275a.9.9,0,0,0,0,1.271l2.1,2.1-.989.989a.9.9,0,1,0,1.27,1.27l1.625-1.624a.9.9,0,0,0,0-1.27Z" transform="translate(-13107.911 -12636.461)" fill="#fff"/>
  </g>
</svg>
