<svg xmlns="http://www.w3.org/2000/svg" width="27.518" height="27.518" viewBox="0 0 27.518 27.518">
  <g id="Grupo_1019398" data-name="Grupo 1019398" transform="translate(12905.34 11859.038)">
    <path id="Trazado_730040" data-name="Trazado 730040" d="M140.377,997.886a13.759,13.759,0,1,0,13.759,13.759,13.758,13.758,0,0,0-13.759-13.759" transform="translate(-13031.958 -12856.924)" fill="#57dbd8"/>
    <path id="Trazado_730039" data-name="Trazado 730039" d="M176.918,1052.236H160.744a1.183,1.183,0,0,0-1.183,1.183v10.341a1.183,1.183,0,0,0,1.183,1.183h16.175a1.183,1.183,0,0,0,1.183-1.183v-10.341a1.183,1.183,0,0,0-1.183-1.183m-1.183,10.341H161.927V1054.6h13.808Z" transform="translate(-13060.412 -12903.869)" fill="#fff"/>
    <path id="Trazado_730038" data-name="Trazado 730038" d="M172.039,1059.666l-7.586-5.692-1.42,1.892,8.317,6.24a1.184,1.184,0,0,0,1.446-.02l7.858-6.24-1.472-1.853Z" transform="translate(-13063.411 -12905.37)" fill="#fff"/>
  </g>
</svg>
