<svg xmlns="http://www.w3.org/2000/svg" width="26.615" height="26.616" viewBox="0 0 26.615 26.616">
  <g id="Grupo_1019394" data-name="Grupo 1019394" transform="translate(-1339.75 -224.719)">
    <g id="Grupo_1019392" data-name="Grupo 1019392">
      <path id="Trazado_730029" data-name="Trazado 730029" d="M3387.619,475a13.308,13.308,0,1,0,13.308,13.308A13.308,13.308,0,0,0,3387.619,475" transform="translate(-2034.561 -250.277)" fill="#fe7062"/>
      <path id="Trazado_730030" data-name="Trazado 730030" d="M3435.01,527.834l-10.471,10.213a1.128,1.128,0,0,0,1.576,1.616l10.471-10.213a1.128,1.128,0,1,0-1.576-1.616" transform="translate(-2077.65 -295.64)" fill="#fff"/>
    </g>
    <path id="Trazado_730031" data-name="Trazado 730031" d="M3428.3,526.308a2.456,2.456,0,1,0,2.456,2.456,2.456,2.456,0,0,0-2.456-2.456" transform="translate(-2079.069 -294.599)" fill="#fff"/>
    <path id="Trazado_730032" data-name="Trazado 730032" d="M3486.172,582.287a2.456,2.456,0,1,0,2.456,2.456,2.456,2.456,0,0,0-2.456-2.456" transform="translate(-2129.06 -342.95)" fill="#fff"/>
  </g>
</svg>
